# xmcd CD database file
#
# Track frame offsets:
#	183
#	23465
#	52068
#	85078
#	104443
#	127878
#	156258
#	180208
#	199570
#	222400
#	243325
#
# Disc length: 3775 seconds
#
# Revision: 0
# Processed by: cddbd v1.4PL0 Copyright (c) Steve Scherf et al.
# Submitted via: CdAid (MTCDDB.DLL V2003.07.15)
#
DISCID=860ebd0b
DTITLE=Rhoda SCOTT - Live
DYEAR=1991
DGENRE=Blues
TTITLE0=Shiny stockings
TTITLE1=Nyugi Nyugi
TTITLE2=Floor-lip
TTITLE3=You are the sunshine of my life
TTITLE4=Isn't she lovely
TTITLE5=Enfant du soleil
TTITLE6=Shitville
TTITLE7=People
TTITLE8=Blusette
TTITLE9=Aint't no use
TTITLE10=Li'l darlin
EXTD=Orgue hammond ID3G:   0 YEAR: 1991
EXTT0=
EXTT1=
EXTT2=
EXTT3=
EXTT4=
EXTT5=
EXTT6=
EXTT7=
EXTT8=
EXTT9=
EXTT10=
PLAYORDER=
